<?xml version="1.0" encoding="UTF-8" standalone="no"?>
<!-- Created with Inkscape (http://www.inkscape.org/) -->

<svg
   width="133"
   height="40"
   viewBox="0 0 133 40"
   version="1.1"
   id="svg5"
   xml:space="preserve"
   xmlns="http://www.w3.org/2000/svg"
   xmlns:svg="http://www.w3.org/2000/svg"><defs
     id="defs2" /><path
     style="fill:#000000;stroke-width:0.0406424"
     d="m 38.582399,39.93714 c -0.01138,-0.03071 -0.105473,-0.07774 -0.208782,-0.104406 -0.185336,-0.04781 -0.245812,-0.07887 -0.561836,-0.28846 -0.226352,-0.150119 -0.547643,-0.492687 -0.6421,-0.684589 -0.04398,-0.08935 -0.100836,-0.190218 -0.126354,-0.224156 -0.170938,-0.227359 -0.269293,-1.17623 -0.158042,-1.524706 0.03475,-0.108892 0.06321,-0.22725 0.06321,-0.263007 0,-0.07342 0.174617,-0.433432 0.299101,-0.616673 0.172216,-0.2535 0.651776,-0.680978 0.763945,-0.680978 0.01935,0 0.06336,-0.02589 0.09823,-0.05755 0.07406,-0.06725 0.450731,-0.180274 0.766063,-0.229877 0.121483,-0.01913 0.835183,-0.03669 1.58604,-0.03912 1.264982,-0.004 1.377933,-0.0103 1.538657,-0.08503 0.09542,-0.04435 0.21747,-0.11613 0.271307,-0.159498 0.151417,-0.122027 0.410959,-0.456254 0.530894,-0.683654 l 0.10847,-0.205692 V 31.93058 c 0,-1.969986 -0.0057,-2.160313 -0.06598,-2.172208 -0.03642,-0.0072 -0.189243,0.09924 -0.341305,0.237718 -0.798226,0.72698 -1.624689,1.104052 -2.704567,1.233954 -0.886925,0.106691 -2.08679,-0.188842 -2.911085,-0.717017 -0.33297,-0.213353 -0.461146,-0.314787 -0.753452,-0.59625 -0.798504,-0.768882 -1.451924,-1.815226 -1.722825,-2.758816 -0.126221,-0.439655 -0.192035,-0.723094 -0.257906,-1.110732 -0.06784,-0.399236 -0.07443,-0.812299 -0.08704,-5.453908 -0.01366,-5.024971 -0.0017,-5.623122 0.127311,-6.374983 0.271015,-1.579419 1.252053,-3.086028 2.633682,-4.044616 0.60337,-0.418624 1.084056,-0.6452202 1.826956,-0.8612284 0.633362,-0.184158 0.800972,-0.1922742 4.214503,-0.2040054 3.204302,-0.011 3.255744,-0.00991 3.593684,0.076673 1.067158,0.2734323 1.809945,1.0226648 2.116225,2.1345838 0.07064,0.256415 0.07364,0.733757 0.07364,11.621546 0,10.878468 -0.0031,11.371383 -0.0744,11.76553 -0.04094,0.226259 -0.108659,0.52376 -0.150583,0.661112 -0.04189,0.13735 -0.07618,0.274163 -0.07618,0.304031 0,0.06141 -0.08923,0.26726 -0.348514,0.803802 -0.232988,0.482207 -0.300369,0.593236 -0.599273,0.987317 -0.54788,0.722382 -1.059038,1.174974 -1.963308,1.738359 -0.121597,0.07576 -0.574491,0.297788 -0.610655,0.299382 -0.01745,7.7e-4 -0.104069,0.03732 -0.192393,0.08089 -0.08832,0.04373 -0.188332,0.08011 -0.22225,0.08089 -0.03377,7.7e-4 -0.160372,0.03615 -0.281058,0.07899 -0.120686,0.04268 -0.32336,0.09026 -0.450348,0.105806 -0.126984,0.01555 -0.2567,0.05469 -0.288228,0.08699 -0.08358,0.08563 -4.781422,0.08835 -4.813473,0.0028 z M 41.97281,26.412369 c 0.400613,-0.142042 0.642752,-0.335882 0.841544,-0.673676 l 0.09686,-0.164552 0.01062,-5.850989 0.01062,-5.850988 -0.09443,-0.0243 c -0.05194,-0.01337 -0.517464,-0.01784 -1.03448,-0.0099 -1.095691,0.01671 -1.171415,0.03774 -1.513115,0.420812 -0.299686,0.335948 -0.437495,0.614591 -0.488015,0.986719 -0.05903,0.434851 -0.05953,9.456141 -5.47e-4,9.938086 0.05585,0.456253 0.141667,0.600909 0.569885,0.960403 0.359365,0.301707 0.486816,0.349362 0.943322,0.352756 0.321008,0.0024 0.465566,-0.01613 0.657856,-0.08432 z M 2.6378512,31.232218 C 2.0941765,31.157276 1.4257682,30.881456 1.0493504,30.576721 0.62420968,30.232542 0.23067918,29.629335 0.15240954,29.201882 0.1367025,29.116145 0.09775738,29.035729 0.06585007,29.023186 c -0.08780009,-0.03452 -0.08780009,-26.7333344 0,-26.7678527 C 0.09775738,2.242778 0.13454373,2.1621329 0.14759499,2.0760925 0.19714806,1.7494344 0.49234184,1.2447142 0.81729629,0.93104286 1.0163129,0.73893588 1.0893279,0.68074639 1.3689808,0.49138252 1.5600566,0.36199737 1.9532502,0.18237567 2.1079353,0.15380956 2.1919111,0.13830014 2.270636,0.09886577 2.282883,0.06617548 2.3152455,-0.02018365 3.5621481,-0.02184731 3.5944617,0.06442902 3.6063368,0.09614754 3.70314,0.14137754 3.8095609,0.16491377 4.0835199,0.22550548 4.4613171,0.44884899 4.6859806,0.68302771 4.9888572,0.99873198 5.297136,1.4344749 5.4299037,1.7345423 c 0.02504,0.056565 0.071877,0.1566724 0.1041104,0.2224572 0.032249,0.065789 0.09395,0.3314236 0.1371483,0.5903074 0.075895,0.4548336 0.078543,0.7121878 0.078543,7.6369981 0,5.518941 0.011078,7.177652 0.048183,7.21567 0.096006,0.09836 0.2280366,0.05574 0.3249233,-0.104905 0.088798,-0.147227 0.2563473,-0.489739 0.3471408,-0.709634 0.023371,-0.05657 0.058742,-0.130614 0.078642,-0.164552 0.01988,-0.03393 0.1443796,-0.293108 0.2766261,-0.575935 C 7.0544977,15.354601 7.322898,14.785783 8.0384161,13.273812 8.21509,12.900482 8.5019822,12.294208 8.6759574,11.926535 9.4356377,10.321056 9.5473444,10.095077 9.6774897,9.9004784 9.7531491,9.787349 9.8715476,9.633452 9.9405941,9.5584859 10.136344,9.3459562 10.798732,8.901556 10.929423,8.8950739 c 0.03312,-0.00164 0.113933,-0.03168 0.179565,-0.066741 0.06564,-0.035061 0.26439,-0.082826 0.441681,-0.1061327 1.283553,-0.1687534 2.44147,0.4454887 2.957925,1.5690938 0.212724,0.462805 0.241945,0.558072 0.280939,0.915921 0.04701,0.431406 -0.006,1.097621 -0.102175,1.284973 -0.03487,0.06788 -0.06349,0.143596 -0.06363,0.168268 -2.81e-4,0.04858 -0.188272,0.430783 -0.342178,0.695636 -0.05259,0.0905 -0.114309,0.201575 -0.137145,0.246829 -0.02284,0.04525 -0.08699,0.156326 -0.142562,0.246829 -0.05557,0.0905 -0.137964,0.2386 -0.183093,0.329107 -0.04513,0.0905 -0.126029,0.2386 -0.179774,0.329107 -0.05374,0.0905 -0.115902,0.201576 -0.138127,0.246829 -0.02223,0.04525 -0.08588,0.156326 -0.141451,0.246829 -0.05557,0.0905 -0.137964,0.2386 -0.183093,0.329107 -0.04513,0.0905 -0.126028,0.2386 -0.179774,0.329107 -0.05375,0.0905 -0.115902,0.201576 -0.138127,0.246829 -0.02223,0.04525 -0.08588,0.156327 -0.14145,0.246829 -0.05557,0.0905 -0.137964,0.238601 -0.183094,0.329107 -0.04513,0.0905 -0.126028,0.238601 -0.179773,0.329107 -0.05375,0.0905 -0.115902,0.201576 -0.138127,0.246829 -0.02223,0.04525 -0.08588,0.156327 -0.141451,0.24683 -0.05557,0.0905 -0.137964,0.2386 -0.183093,0.329107 -0.04513,0.0905 -0.121942,0.232431 -0.170687,0.315393 -0.172011,0.292743 -0.269319,0.489971 -0.269319,0.545865 0,0.0311 0.08583,0.106829 0.190727,0.168307 1.217837,0.713704 2.150612,1.809241 2.573492,3.022548 0.337504,0.96835 0.369723,1.346373 0.368619,4.324823 -8.28e-4,2.232013 -0.0079,2.493328 -0.07788,2.900244 -0.12462,0.724124 -0.334905,1.110794 -0.814167,1.497092 -0.361057,0.291025 -0.433218,0.339217 -0.754116,0.503676 -0.95024,0.486978 -1.966397,0.399686 -2.912112,-0.250171 C 9.6765761,30.422154 9.3007882,29.962908 9.1212233,29.556555 8.8636581,28.973692 8.8459516,28.737112 8.8431403,25.841538 l -0.00245,-2.53 -0.093548,-0.205817 C 8.5496663,22.671257 7.9699125,22.256044 7.459124,22.183257 c -0.4425562,-0.06306 -1.5554385,-0.05814 -1.6404907,0.0073 -0.061193,0.04706 -0.067958,0.322215 -0.079632,3.239634 -0.011458,2.859782 -0.020146,3.226303 -0.084363,3.557977 -0.039381,0.203372 -0.0861,0.388494 -0.1038182,0.411382 -0.017718,0.02289 -0.045497,0.0879 -0.061736,0.144463 -0.096086,0.334697 -0.7797818,1.064796 -1.2651947,1.351062 -0.5077063,0.299414 -1.0396261,0.412495 -1.5860392,0.337174 z m 21.1806458,0.01485 c -0.95718,-0.04743 -2.241602,-0.302071 -2.911084,-0.577135 -0.412675,-0.169551 -0.888004,-0.407684 -0.986907,-0.494424 -0.03487,-0.03059 -0.07817,-0.0556 -0.09623,-0.0556 -0.01806,0 -0.130664,-0.06653 -0.250235,-0.147845 -1.130773,-0.76898 -1.959295,-1.941847 -2.293041,-3.246057 -0.240014,-0.937924 -0.228268,-0.59074 -0.228268,-6.746668 0,-5.303017 0.0044,-5.660236 0.07412,-6.047318 0.04076,-0.226259 0.08973,-0.476175 0.108827,-0.555366 0.09473,-0.392945 0.173172,-0.645392 0.223347,-0.718788 0.0305,-0.04463 0.05547,-0.109584 0.05547,-0.144346 0,-0.06574 0.326114,-0.743817 0.401024,-0.833842 0.02352,-0.02826 0.100195,-0.143961 0.170383,-0.257091 0.182156,-0.293598 1.004179,-1.120226 1.335856,-1.343331 0.895433,-0.602323 1.697072,-0.9406084 2.71032,-1.1437349 0.907637,-0.1819539 0.966257,-0.1869177 2.208409,-0.1869177 1.245934,0 1.260891,0.00126 2.208408,0.1859032 0.318022,0.061972 0.780203,0.1886824 0.870686,0.2387013 0.04824,0.026665 0.118531,0.048483 0.156213,0.048483 0.06416,0 0.214427,0.062908 0.599293,0.2508873 0.08834,0.043147 0.175004,0.078394 0.192597,0.078332 0.03179,-1.232e-4 0.654175,0.3580734 0.730919,0.4206483 0.219588,0.1790505 0.358504,0.2785865 0.388796,0.2785865 0.08411,0 0.918587,0.916692 1.125744,1.236653 0.267866,0.41373 0.553334,0.960529 0.553334,1.059888 0,0.03914 0.02496,0.107683 0.05547,0.152315 0.121829,0.178218 0.320196,1.110755 0.3848,1.808951 0.04663,0.503981 0.04941,10.592682 0.003,11.086749 -0.0978,1.042301 -0.30044,1.744351 -0.753656,2.611056 -0.214446,0.410093 -0.695664,0.987082 -1.118422,1.341007 -0.718139,0.601213 -1.363651,0.947703 -2.365686,1.269826 -0.96591,0.31051 -2.41988,0.486643 -3.553531,0.430472 z m 1.13416,-4.835232 c 0.485373,-0.169928 0.812793,-0.44428 0.92288,-0.773299 0.06708,-0.200484 0.09583,-10.388017 0.03077,-10.897059 -0.05155,-0.403179 -0.155409,-0.57906 -0.514645,-0.871504 -0.41923,-0.341281 -0.560252,-0.390659 -1.111394,-0.389151 -0.414963,0.0011 -0.504125,0.0136 -0.642446,0.08977 -0.423128,0.233038 -0.792203,0.777282 -0.861845,1.270891 -0.06268,0.444291 -0.05203,10.241803 0.01153,10.612649 0.07911,0.461512 0.319456,0.718218 0.88058,0.940522 0.345495,0.136876 0.920698,0.144568 1.284572,0.01718 z m 49.679315,4.818591 c -0.43356,-0.03619 -1.151994,-0.149718 -1.340285,-0.211783 -0.07463,-0.02461 -0.228207,-0.06874 -0.341306,-0.09809 -0.201535,-0.0523 -0.487961,-0.150429 -0.647278,-0.221742 -0.289821,-0.129723 -0.809937,-0.399741 -0.927633,-0.481572 -0.07698,-0.05353 -0.148952,-0.09733 -0.159916,-0.09733 -0.06583,0 -0.619461,-0.449426 -0.933754,-0.757975 -0.71464,-0.701578 -1.291202,-1.651455 -1.500094,-2.471375 -0.02314,-0.0905 -0.06746,-0.240886 -0.09864,-0.334183 -0.05585,-0.167032 -0.09143,-0.417004 -0.175016,-1.229069 -0.02845,-0.276504 -0.03813,-2.643655 -0.02959,-7.219757 0.01176,-6.235623 0.01859,-6.837349 0.08165,-7.152784 0.189926,-0.950636 0.864513,-1.6877329 1.915918,-2.0934109 0.214549,-0.082783 0.358606,-0.1044185 0.809489,-0.121576 0.482502,-0.018347 0.583961,-0.010145 0.84321,0.068179 0.491691,0.1485757 0.763124,0.3048866 1.056936,0.6086758 0.27108,0.2802736 0.633654,0.7920191 0.684346,0.9658881 0.01517,0.05164 0.05061,0.131791 0.07903,0.178113 0.02845,0.04632 0.08525,0.203675 0.126301,0.349674 0.07117,0.252967 0.07561,0.603018 0.09474,7.44407 l 0.02011,7.178619 0.106686,0.205692 c 0.473913,0.91379 2.089018,1.039661 2.828816,0.220464 0.06863,-0.076 0.158968,-0.240004 0.200777,-0.364445 0.07307,-0.217637 0.07675,-0.501433 0.09697,-7.446017 l 0.02087,-7.219757 0.08571,-0.24854 c 0.168756,-0.489332 0.27897,-0.665902 0.635213,-1.0175359 0.567256,-0.5599373 1.266147,-0.8880643 1.967489,-0.9237274 0.508605,-0.025849 1.132835,0.1022067 1.489525,0.3055939 0.205064,0.1169194 0.647992,0.5430601 0.828585,0.797148 0.151379,0.2130114 0.349121,0.5944564 0.467538,0.9019364 l 0.102969,0.267399 0.02125,7.199188 c 0.02087,6.957201 0.0239,7.206102 0.09807,7.40488 0.04215,0.113129 0.120269,0.264838 0.173574,0.337125 0.113554,0.154006 0.420778,0.364519 0.592672,0.406121 0.06624,0.01605 0.145764,0.0497 0.176723,0.07481 0.03111,0.02511 0.261936,0.05234 0.513336,0.06052 0.39705,0.0129 0.489862,0.0027 0.706654,-0.07811 0.474113,-0.176625 0.696197,-0.350323 0.865644,-0.677053 l 0.106686,-0.205692 0.02011,-7.219757 c 0.01556,-5.650134 0.03111,-7.244935 0.07026,-7.335565 0.0277,-0.06369 0.05019,-0.164101 0.05019,-0.223126 0,-0.203566 0.318694,-0.7794948 0.581699,-1.0511644 0.41547,-0.4291808 0.809501,-0.6739692 1.400955,-0.8703341 0.453653,-0.1506125 1.099819,-0.1501966 1.601541,0.00103 0.436095,0.1314492 0.653649,0.2541719 0.951639,0.5368278 0.482855,0.4580113 0.846947,1.1429057 0.967736,1.8204117 0.07808,0.437931 0.07963,0.608305 0.06768,7.374412 -0.01214,6.975053 -0.01555,7.143124 -0.150089,7.790026 -0.242132,1.164426 -0.771038,2.173901 -1.556728,2.971068 -0.446721,0.453249 -1.017797,0.870369 -1.556344,1.136765 -0.494002,0.244361 -0.538095,0.262794 -0.902768,0.377326 -0.187726,0.05896 -0.423984,0.133354 -0.525044,0.165329 -0.51647,0.163421 -1.766989,0.275963 -2.489259,0.224024 -0.531285,-0.03821 -1.343886,-0.147631 -1.410758,-0.189977 -0.022,-0.01403 -0.160333,-0.058 -0.307122,-0.09774 -0.469022,-0.126995 -1.059061,-0.376498 -1.370846,-0.579668 -0.390866,-0.2547 -0.484092,-0.320085 -0.662746,-0.46482 -0.110404,-0.08946 -0.340812,-0.302488 -0.51197,-0.473404 L 80.232854,29.113911 79.92171,29.43049 c -0.171146,0.174118 -0.383442,0.374741 -0.471777,0.44583 -0.428646,0.344947 -1.256199,0.823467 -1.565962,0.905497 -0.06624,0.01753 -0.201763,0.06069 -0.301127,0.09589 -0.359707,0.127384 -0.738702,0.22952 -0.851667,0.22952 -0.06347,0 -0.245622,0.0262 -0.404805,0.05824 -0.359252,0.0723 -1.214322,0.105068 -1.694768,0.06496 z M 53.732396,30.798535 c -0.306553,-0.05439 -0.733443,-0.252617 -0.980104,-0.455114 -0.219519,-0.180232 -0.467903,-0.446404 -0.532962,-0.571171 -0.03491,-0.06677 -0.08806,-0.146772 -0.118334,-0.177776 -0.03035,-0.03102 -0.05501,-0.08225 -0.05501,-0.113875 0,-0.03164 -0.03794,-0.131877 -0.08407,-0.222776 -0.07645,-0.150286 -0.08267,-0.218477 -0.06852,-0.752039 0.01138,-0.422546 0.03339,-0.627064 0.07983,-0.73075 0.135027,-0.302515 0.158778,-0.353005 0.218874,-0.465887 0.03415,-0.06391 0.200284,-0.262195 0.369457,-0.440615 0.402302,-0.424344 0.804759,-0.640882 1.299439,-0.699155 0.183249,-0.02157 1.302425,-0.03939 2.487082,-0.03956 2.346731,-3.29e-4 2.55494,-0.0166 3.005721,-0.234624 0.219709,-0.106257 0.721367,-0.578315 0.724114,-0.681366 7.62e-4,-0.0281 0.03642,-0.125121 0.07895,-0.215623 0.06078,-0.128892 0.07789,-0.255754 0.07895,-0.585405 0.0012,-0.366101 -0.0129,-0.457083 -0.109039,-0.69935 -0.136393,-0.344021 -0.51996,-0.758231 -0.853249,-0.921434 -0.39924,-0.195496 -0.513006,-0.241535 -0.596838,-0.241535 -0.04553,0 -0.174484,-0.03704 -0.28652,-0.08228 -0.112074,-0.04525 -0.234695,-0.08201 -0.272521,-0.08168 -0.03794,3.29e-4 -0.195276,-0.03887 -0.349842,-0.08709 -0.154605,-0.04822 -0.407553,-0.123671 -0.562142,-0.167654 -0.154604,-0.04399 -0.37143,-0.109168 -0.481834,-0.144855 -0.110405,-0.03568 -0.300141,-0.08868 -0.421605,-0.117767 -0.38609,-0.09246 -0.576817,-0.147946 -0.783755,-0.228016 -0.11086,-0.04289 -0.226311,-0.07798 -0.256587,-0.07798 -0.08567,0 -0.739999,-0.315106 -1.151292,-0.554436 -0.709317,-0.412749 -1.377451,-1.069513 -1.884469,-1.8524 -0.223465,-0.345036 -0.241942,-0.377731 -0.3834,-0.678531 -0.06916,-0.147067 -0.14383,-0.30248 -0.165987,-0.345358 -0.06237,-0.120912 -0.186397,-0.500635 -0.303745,-0.929927 -0.102665,-0.375511 -0.106876,-0.431892 -0.108394,-1.439838 -0.0014,-0.945227 0.008,-1.095835 0.09322,-1.522114 0.09629,-0.480564 0.203736,-0.862101 0.308829,-1.09638 0.03187,-0.0713 0.05812,-0.147017 0.05812,-0.168267 0,-0.04501 0.210604,-0.46858 0.322336,-0.64828 0.04223,-0.06788 0.106838,-0.178954 0.14364,-0.24683 0.18765,-0.346198 0.81452,-1.057474 1.341465,-1.522113 0.27032,-0.238363 1.221029,-0.8433341 1.325283,-0.8433341 0.0258,0 0.095,-0.02752 0.153618,-0.061148 0.212918,-0.1221514 0.852574,-0.3255969 1.250934,-0.3978541 0.874237,-0.1585771 0.863018,-0.1580835 3.599439,-0.1573643 2.491775,6.538e-4 2.70525,0.00622 2.973738,0.077683 0.530758,0.1412524 0.918293,0.3885092 1.211321,0.7728472 0.221454,0.2904493 0.298434,0.4447853 0.424196,0.8504903 0.103006,0.332341 0.11105,0.401762 0.09033,0.781626 -0.03453,0.630877 -0.23314,1.126378 -0.610974,1.523218 -0.286066,0.300471 -0.479664,0.424631 -0.96244,0.617242 -0.189091,0.07544 -0.351321,0.08149 -2.790622,0.104103 l -2.589863,0.02402 -0.200777,0.09842 c -0.251351,0.123209 -0.487226,0.361059 -0.607567,0.612601 -0.07614,0.15918 -0.09284,0.261682 -0.09386,0.577048 -0.0011,0.344721 0.0099,0.402941 0.108508,0.575935 0.06036,0.105845 0.161888,0.238728 0.225589,0.295293 0.145916,0.129556 0.708566,0.451508 0.7889,0.451406 0.03301,-4.2e-5 0.186701,0.03852 0.341306,0.08567 0.154604,0.04716 0.398518,0.120775 0.542063,0.163595 0.143564,0.04282 0.351322,0.107217 0.461757,0.143107 0.110405,0.03588 0.300141,0.0906 0.421605,0.121583 0.121445,0.03098 0.347338,0.09642 0.501912,0.145408 0.273546,0.08669 0.588885,0.181476 1.009056,0.303285 0.113288,0.03285 0.261481,0.08911 0.329279,0.125028 0.0678,0.03592 0.144778,0.06531 0.17107,0.06531 0.04917,0 0.185981,0.06106 0.638803,0.285085 0.298434,0.147647 0.336753,0.170056 0.653743,0.382271 0.127667,0.08548 0.242169,0.155409 0.254462,0.155409 0.01214,0 0.209047,0.156194 0.437274,0.347096 0.439509,0.367632 0.633248,0.567177 0.952526,0.98105 0.108469,0.140623 0.220354,0.285086 0.248657,0.321034 0.09037,0.114909 0.522369,0.912516 0.598855,1.105738 0.190078,0.480177 0.237275,0.607936 0.273925,0.741831 0.02163,0.07919 0.06499,0.237418 0.09629,0.351617 0.211514,0.772215 0.221454,2.583023 0.01821,3.309683 -0.04116,0.147067 -0.09291,0.332189 -0.115071,0.411382 -0.05437,0.194599 -0.157108,0.487335 -0.22373,0.637642 -0.166328,0.375157 -0.375414,0.796552 -0.45459,0.916181 -0.0497,0.07507 -0.09033,0.14568 -0.09033,0.156906 0,0.03148 -0.156956,0.253262 -0.419507,0.592746 -0.257876,0.333449 -0.700655,0.797718 -0.981091,1.028721 -0.09614,0.07919 -0.195275,0.162639 -0.220278,0.185437 -0.24528,0.223592 -1.476519,0.923141 -1.631009,0.926691 -0.03339,7.69e-4 -0.133017,0.03716 -0.221341,0.08088 -0.08832,0.04372 -0.210868,0.08011 -0.272331,0.08088 -0.06142,7.7e-4 -0.178013,0.02978 -0.259052,0.06447 -0.08104,0.03467 -0.410212,0.09018 -0.731505,0.123321 -0.791896,0.08168 -5.96448,0.08053 -6.426404,-0.0014 z m 46.436814,0.0013 c -0.26501,-0.02733 -0.568293,-0.0804 -0.673963,-0.117969 -0.105662,-0.03755 -0.232153,-0.06893 -0.281057,-0.0697 -0.0489,-7.7e-4 -0.161206,-0.03716 -0.249568,-0.08088 -0.08832,-0.04372 -0.18101,-0.08011 -0.205936,-0.08088 -0.02504,-7.69e-4 -0.151418,-0.05106 -0.281058,-0.111773 -1.069968,-0.500982 -2.073823,-1.376766 -2.679174,-2.337344 -0.33459,-0.530963 -0.299306,-0.465711 -0.489494,-0.905041 -0.04898,-0.113129 -0.118296,-0.27328 -0.154073,-0.355892 -0.03566,-0.08261 -0.06503,-0.173865 -0.06503,-0.202793 0,-0.02892 -0.03415,-0.164967 -0.07554,-0.302321 -0.04154,-0.13735 -0.109304,-0.416339 -0.150583,-0.619973 -0.07053,-0.34813 -0.07573,-0.676545 -0.08654,-5.499031 -0.01138,-5.088275 -0.0016,-5.579214 0.126149,-6.331552 0.116779,-0.687298 0.429971,-1.536713 0.738595,-2.002999 0.0497,-0.07507 0.09033,-0.146313 0.09033,-0.158305 0,-0.01201 0.101299,-0.159727 0.225134,-0.328294 0.633358,-0.862192 1.605245,-1.5831742 2.685939,-1.9925383 0.132523,-0.050194 0.304163,-0.1168066 0.381453,-0.1480353 0.07728,-0.031213 0.235872,-0.074784 0.352422,-0.096788 0.116551,-0.022001 0.24475,-0.058038 0.284928,-0.080062 0.04018,-0.02204 0.224906,-0.059391 0.410486,-0.083032 0.1856,-0.023633 0.40069,-0.06334 0.47798,-0.088217 0.20279,-0.065276 2.22612,-0.097282 2.67017,-0.042237 0.56654,0.070228 0.89753,0.1276048 1.24474,0.2157948 0.4082,0.103676 0.97393,0.2845377 1.1042,0.3530085 0.0552,0.029036 0.12209,0.052876 0.14865,0.053016 0.0481,2.468e-4 0.51165,0.2415389 0.85516,0.4451337 0.48166,0.2854746 1.13849,0.8704986 1.50967,1.3446316 0.30906,0.394771 0.7093,1.098676 0.81984,1.441824 0.0266,0.08247 0.0733,0.199069 0.10387,0.259105 0.0307,0.06004 0.0557,0.132685 0.0559,0.161442 0,0.02876 0.0357,0.186113 0.079,0.349673 0.22365,0.844223 0.22236,0.818748 0.22236,4.370068 0,3.03834 -0.005,3.304881 -0.0703,3.471067 -0.0387,0.099 -0.0703,0.21548 -0.0703,0.258829 0,0.174934 -0.24976,0.618242 -0.50369,0.894028 -0.35037,0.380541 -0.70872,0.621386 -1.31987,0.887105 -0.28948,0.125859 -0.79004,0.144848 -3.82655,0.145163 -2.94462,2.88e-4 -3.02113,0.0023 -3.06165,0.07988 -0.0584,0.11173 -0.0493,1.15998 0.0129,1.489014 0.0927,0.490294 0.51371,0.88191 1.14995,1.069586 0.23636,0.06972 0.4249,0.07716 2.00764,0.07917 2.14961,0.0027 2.2412,0.01112 2.70757,0.247883 0.47109,0.239164 0.78762,0.559554 1.01869,1.031132 0.18997,0.387697 0.25162,0.656757 0.25306,1.104785 0.001,0.423918 -0.0565,0.687071 -0.23261,1.057038 -0.30905,0.649312 -0.92273,1.108389 -1.64149,1.227918 -0.46456,0.07726 -4.86767,0.07676 -5.61847,-6.33e-4 z m 3.42413,-12.056981 0.0892,-0.06404 -4e-4,-1.756326 c -4e-4,-1.886235 -0.033,-2.409035 -0.16333,-2.625319 -0.12388,-0.205362 -0.50299,-0.540434 -0.77569,-0.685596 -0.23686,-0.126069 -0.26216,-0.130516 -0.74803,-0.131243 -0.5,-7.49e-4 -0.50408,2.1e-5 -0.70741,0.1337 -0.18681,0.122812 -0.44283,0.416401 -0.63521,0.728378 -0.15973,0.259038 -0.17931,0.530068 -0.18079,2.50146 l -0.001,1.8834 0.0903,0.0372 c 0.0497,0.02045 0.73228,0.03837 1.51687,0.03981 1.22894,0.0022 1.43889,-0.0063 1.51577,-0.06143 z m 14.4439,12.057077 c -0.26501,-0.02725 -0.58121,-0.07904 -0.70268,-0.115061 -0.12144,-0.03603 -0.28409,-0.084 -0.36137,-0.106623 -0.27154,-0.07948 -0.50529,-0.176477 -0.86329,-0.358248 -0.3764,-0.191112 -0.41129,-0.211636 -0.67972,-0.399842 -0.0899,-0.06304 -0.23269,-0.161399 -0.31729,-0.21857 -0.18295,-0.123663 -0.99626,-0.946448 -1.19555,-1.20949 -0.58578,-0.77315 -1.02444,-1.777493 -1.19128,-2.72751 -0.0606,-0.345083 -0.0675,-1.382375 -0.0782,-11.772715 -0.0102,-10.0482784 -0.005,-11.4194535 0.0487,-11.6073084 0.0334,-0.1171603 0.0604,-0.2496784 0.0604,-0.2944847 0,-0.1825681 0.31714,-0.7311089 0.57123,-0.9880651 0.39918,-0.40366723 0.9787,-0.76903276 1.34879,-0.85035735 0.0733,-0.0160925 0.14295,-0.05529362 0.15487,-0.08710155 0.0326,-0.08757189 1.28985,-0.08438838 1.35376,0.0034284 0.0247,0.03370093 0.13685,0.07898534 0.24957,0.10065189 0.23169,0.0445225 0.63059,0.26948697 0.87143,0.49142918 0.43918,0.40474123 0.83647,1.14118513 0.95692,1.77381533 0.0713,0.3744613 0.0744,0.8494987 0.0748,11.3541473 4e-4,6.387515 0.0155,11.05869 0.0368,11.191799 0.0201,0.125653 0.078,0.292502 0.12877,0.370772 0.0936,0.144335 0.4813,0.490927 0.54923,0.490927 0.0205,0 0.0802,0.03355 0.13283,0.07455 0.1304,0.101519 0.60393,0.202672 1.15981,0.247762 0.63211,0.05127 0.89852,0.178215 1.3493,0.642936 0.33079,0.341029 0.35538,0.376728 0.57877,0.84049 l 0.12672,0.263054 -0.0136,0.621416 -0.0137,0.621418 -0.18044,0.370243 c -0.34495,0.707824 -0.93224,1.154524 -1.68178,1.279185 -0.42252,0.07027 -1.77912,0.06882 -2.4738,-0.0027 z m 10.51189,-0.0026 c -0.26948,-0.02865 -0.56764,-0.07946 -0.66252,-0.112916 -0.0949,-0.03347 -0.24479,-0.07993 -0.33315,-0.10328 -0.38887,-0.102766 -1.09926,-0.422218 -1.26798,-0.570187 -0.0349,-0.03059 -0.081,-0.0556 -0.10262,-0.0556 -0.0216,0 -0.10145,-0.04621 -0.17752,-0.102681 -0.0761,-0.05648 -0.18257,-0.135153 -0.23671,-0.174837 -0.94905,-0.695913 -1.79339,-1.811655 -2.17154,-2.869553 -0.0485,-0.135756 -0.11207,-0.305132 -0.14125,-0.376385 -0.0292,-0.07125 -0.0643,-0.200842 -0.078,-0.287967 -0.0137,-0.08713 -0.0556,-0.287997 -0.0929,-0.446379 -0.0631,-0.267042 -0.068,-1.126507 -0.068,-11.827237 0,-11.0409811 0.003,-11.5508171 0.0732,-11.8066686 0.14557,-0.5317167 0.3569,-0.8626199 0.81149,-1.27061455 0.28341,-0.25436624 0.89062,-0.60276858 1.11442,-0.6394338 0.0837,-0.0137214 0.16242,-0.0523589 0.17498,-0.08589268 0.0334,-0.08928609 1.31955,-0.09074374 1.35296,-0.0015319 0.0121,0.03269029 0.091,0.07084192 0.17494,0.08478097 0.6792,0.11272904 1.41941,0.88212836 1.80056,1.87155626 l 0.11886,0.3085365 0.0201,11.2718718 c 0.0231,12.925521 -0.0254,11.556406 0.42585,11.981506 0.15017,0.141412 0.294,0.257114 0.31964,0.257114 0.0258,0 0.0897,0.03409 0.14239,0.07574 0.14121,0.111703 0.42959,0.17477 1.06036,0.231918 0.51764,0.04689 0.58794,0.06343 0.8712,0.20495 0.22745,0.113635 0.37439,0.225318 0.56122,0.426567 0.2842,0.306158 0.57933,0.748226 0.61708,0.924304 0.0137,0.06419 0.0504,0.126699 0.0815,0.138905 0.0841,0.03308 0.0826,1.187305 -0.002,1.220401 -0.0319,0.01256 -0.0709,0.09305 -0.0866,0.178895 -0.0652,0.355901 -0.4479,0.897095 -0.81889,1.157937 -0.54465,0.382942 -0.91621,0.461391 -2.14835,0.453595 -0.46376,-0.0029 -1.06371,-0.02876 -1.33321,-0.05742 z"
     id="path910" /></svg>
